# xmcd
#
# Track frame offsets: 
#        150
#        45968
#        63065
#        90926
#        121653
#        153120
#
# Disc length: 2451 seconds
#
# Revision: 0
# Processed by: cddbd v1.5.2PL0 Copyright (c) Steve Scherf et al.
# Submitted via: ExactAudioCopy v1.0b3
#
DISCID=2f099106
DTITLE=Kalle Sändare - Boxen e' klar - CD 1 - Tager ett nummer
DYEAR=2014
DGENRE=Comedy
TTITLE0=Kartonger till salu
TTITLE1=Beg elgitarr märke Kent säljes
TTITLE2=Dvärgpapegoja med bur
TTITLE3=2 st bikupor modell Sved med tillbehör
TTITLE4=Batterist sökes till dans- och poporkester
TTITLE5=Trädfällning m.m. utföres
EXTD=
EXTT0=
EXTT1=
EXTT2=
EXTT3=
EXTT4=
EXTT5=
PLAYORDER=
